<mxfile host="app.diagrams.net" agent="Mozilla/5.0 (Windows NT 10.0; Win64; x64; rv:143.0) Gecko/20100101 Firefox/143.0" version="28.2.6" pages="2">
  <diagram name="Architecture globale" id="qbSK8kkbkhKGErqz2HW5">
    <mxGraphModel dx="2115" dy="1198" grid="1" gridSize="10" guides="1" tooltips="1" connect="1" arrows="1" fold="1" page="1" pageScale="1" pageWidth="827" pageHeight="1169" math="0" shadow="0">
      <root>
        <mxCell id="0" />
        <mxCell id="1" parent="0" />
        <mxCell id="1tEm5xEd0jEl-nkEfbYp-30" value="" style="whiteSpace=wrap;html=1;fillColor=#6a00ff;strokeColor=#3700CC;opacity=50;fontColor=#ffffff;" vertex="1" parent="1">
          <mxGeometry x="2570" y="563.94" width="460" height="189" as="geometry" />
        </mxCell>
        <mxCell id="1tEm5xEd0jEl-nkEfbYp-29" value="" style="whiteSpace=wrap;html=1;fillColor=#60a917;strokeColor=#2D7600;opacity=50;fontColor=#ffffff;" vertex="1" parent="1">
          <mxGeometry x="2570" y="392.94" width="460" height="169.01" as="geometry" />
        </mxCell>
        <mxCell id="kXjyHpJwVwnROSJy47Iu-1" value="" style="whiteSpace=wrap;html=1;fillColor=#e1d5e7;strokeColor=#9673a6;opacity=50;" parent="1" vertex="1">
          <mxGeometry x="243" y="799" width="775" height="440" as="geometry" />
        </mxCell>
        <mxCell id="kXjyHpJwVwnROSJy47Iu-2" value="" style="whiteSpace=wrap;html=1;fillColor=#dae8fc;strokeColor=#6c8ebf;opacity=50;" parent="1" vertex="1">
          <mxGeometry x="40" y="350" width="840" height="406" as="geometry" />
        </mxCell>
        <mxCell id="kXjyHpJwVwnROSJy47Iu-3" value="" style="whiteSpace=wrap;html=1;fillColor=#f8cecc;strokeColor=#b85450;opacity=50;" parent="1" vertex="1">
          <mxGeometry x="948" y="40" width="460" height="350" as="geometry" />
        </mxCell>
        <mxCell id="kXjyHpJwVwnROSJy47Iu-4" value="" style="whiteSpace=wrap;html=1;fillColor=#d5e8d4;strokeColor=#82b366;opacity=50;" parent="1" vertex="1">
          <mxGeometry x="1233" y="810" width="465" height="730" as="geometry" />
        </mxCell>
        <mxCell id="kXjyHpJwVwnROSJy47Iu-5" value="" style="whiteSpace=wrap;html=1;fillColor=#ffe6cc;strokeColor=#d79b00;opacity=50;" parent="1" vertex="1">
          <mxGeometry x="1423" y="420" width="950" height="345" as="geometry" />
        </mxCell>
        <mxCell id="kXjyHpJwVwnROSJy47Iu-6" value="" style="shape=mxgraph.cisco.servers.fileserver;sketch=0;html=1;pointerEvents=1;dashed=0;fillColor=#036897;strokeColor=#ffffff;strokeWidth=2;verticalLabelPosition=bottom;verticalAlign=top;align=center;outlineConnect=0;" parent="1" vertex="1">
          <mxGeometry x="1973" y="584.6800000000001" width="69" height="92" as="geometry" />
        </mxCell>
        <mxCell id="kXjyHpJwVwnROSJy47Iu-7" style="edgeStyle=orthogonalEdgeStyle;rounded=0;orthogonalLoop=1;jettySize=auto;html=1;exitX=0.75;exitY=0;exitDx=0;exitDy=0;curved=1;endArrow=none;endFill=0;" parent="1" source="kXjyHpJwVwnROSJy47Iu-8" target="kXjyHpJwVwnROSJy47Iu-27" edge="1">
          <mxGeometry relative="1" as="geometry" />
        </mxCell>
        <mxCell id="kXjyHpJwVwnROSJy47Iu-8" value="" style="image;html=1;image=img/lib/clip_art/networking/Firewall_02_128x128.png" parent="1" vertex="1">
          <mxGeometry x="1142" y="540" width="80" height="80" as="geometry" />
        </mxCell>
        <mxCell id="kXjyHpJwVwnROSJy47Iu-9" value="" style="shape=mxgraph.cisco.routers.router;sketch=0;html=1;pointerEvents=1;dashed=0;fillColor=#036897;strokeColor=#ffffff;strokeWidth=2;verticalLabelPosition=bottom;verticalAlign=top;align=center;outlineConnect=0;" parent="1" vertex="1">
          <mxGeometry x="1142" y="210" width="78" height="53" as="geometry" />
        </mxCell>
        <mxCell id="kXjyHpJwVwnROSJy47Iu-10" style="edgeStyle=orthogonalEdgeStyle;rounded=0;orthogonalLoop=1;jettySize=auto;html=1;exitX=0.5;exitY=1;exitDx=0;exitDy=0;exitPerimeter=0;endArrow=none;endFill=0;entryX=0.5;entryY=0;entryDx=0;entryDy=0;entryPerimeter=0;" parent="1" source="kXjyHpJwVwnROSJy47Iu-11" target="kXjyHpJwVwnROSJy47Iu-20" edge="1">
          <mxGeometry relative="1" as="geometry">
            <mxPoint x="1465.3896000000004" y="978.752" as="targetPoint" />
            <Array as="points">
              <mxPoint x="1464.5" y="940" />
              <mxPoint x="1465.5" y="940" />
              <mxPoint x="1465.5" y="1088" />
            </Array>
          </mxGeometry>
        </mxCell>
        <mxCell id="kXjyHpJwVwnROSJy47Iu-11" value="" style="shape=mxgraph.cisco.switches.layer_3_switch;sketch=0;html=1;pointerEvents=1;dashed=0;fillColor=#036897;strokeColor=#ffffff;strokeWidth=2;verticalLabelPosition=bottom;verticalAlign=top;align=center;outlineConnect=0;" parent="1" vertex="1">
          <mxGeometry x="1432.5" y="838" width="64" height="64" as="geometry" />
        </mxCell>
        <mxCell id="kXjyHpJwVwnROSJy47Iu-12" style="edgeStyle=orthogonalEdgeStyle;rounded=0;orthogonalLoop=1;jettySize=auto;html=1;exitX=1;exitY=0.5;exitDx=0;exitDy=0;exitPerimeter=0;endArrow=none;endFill=0;entryX=0;entryY=0.5;entryDx=0;entryDy=0;entryPerimeter=0;" parent="1" source="kXjyHpJwVwnROSJy47Iu-13" target="kXjyHpJwVwnROSJy47Iu-21" edge="1">
          <mxGeometry relative="1" as="geometry">
            <mxPoint x="1686.9999999999995" y="579.0049999999997" as="sourcePoint" />
            <mxPoint x="1723" y="580" as="targetPoint" />
          </mxGeometry>
        </mxCell>
        <mxCell id="kXjyHpJwVwnROSJy47Iu-13" value="" style="shape=mxgraph.cisco.switches.layer_3_switch;sketch=0;html=1;pointerEvents=1;dashed=0;fillColor=#036897;strokeColor=#ffffff;strokeWidth=2;verticalLabelPosition=bottom;verticalAlign=top;align=center;outlineConnect=0;" parent="1" vertex="1">
          <mxGeometry x="1583" y="547" width="64" height="64" as="geometry" />
        </mxCell>
        <mxCell id="kXjyHpJwVwnROSJy47Iu-14" value="" style="shape=mxgraph.cisco.switches.layer_3_switch;sketch=0;html=1;pointerEvents=1;dashed=0;fillColor=#036897;strokeColor=#ffffff;strokeWidth=2;verticalLabelPosition=bottom;verticalAlign=top;align=center;outlineConnect=0;" parent="1" vertex="1">
          <mxGeometry x="723" y="547" width="64" height="64" as="geometry" />
        </mxCell>
        <mxCell id="kXjyHpJwVwnROSJy47Iu-15" style="edgeStyle=orthogonalEdgeStyle;rounded=0;orthogonalLoop=1;jettySize=auto;html=1;exitX=1;exitY=0.25;exitDx=0;exitDy=0;exitPerimeter=0;entryX=0;entryY=0.5;entryDx=0;entryDy=0;curved=1;endArrow=none;endFill=0;" parent="1" source="kXjyHpJwVwnROSJy47Iu-21" target="kXjyHpJwVwnROSJy47Iu-31" edge="1">
          <mxGeometry relative="1" as="geometry">
            <mxPoint x="1824" y="555" as="sourcePoint" />
            <mxPoint x="1973" y="476" as="targetPoint" />
          </mxGeometry>
        </mxCell>
        <mxCell id="kXjyHpJwVwnROSJy47Iu-16" style="edgeStyle=orthogonalEdgeStyle;rounded=0;orthogonalLoop=1;jettySize=auto;html=1;exitX=1;exitY=0.5;exitDx=0;exitDy=0;exitPerimeter=0;entryX=0;entryY=0.5;entryDx=0;entryDy=0;entryPerimeter=0;endArrow=none;endFill=0;curved=1;" parent="1" source="kXjyHpJwVwnROSJy47Iu-21" target="kXjyHpJwVwnROSJy47Iu-6" edge="1">
          <mxGeometry relative="1" as="geometry">
            <mxPoint x="1821.9800000000005" y="580" as="sourcePoint" />
          </mxGeometry>
        </mxCell>
        <mxCell id="kXjyHpJwVwnROSJy47Iu-17" style="edgeStyle=entityRelationEdgeStyle;rounded=0;orthogonalLoop=1;jettySize=auto;html=1;exitX=0.5;exitY=1;exitDx=0;exitDy=0;entryX=0.5;entryY=0;entryDx=0;entryDy=0;entryPerimeter=0;endArrow=none;endFill=0;" parent="1" source="kXjyHpJwVwnROSJy47Iu-8" target="kXjyHpJwVwnROSJy47Iu-11" edge="1">
          <mxGeometry relative="1" as="geometry" />
        </mxCell>
        <mxCell id="kXjyHpJwVwnROSJy47Iu-18" style="edgeStyle=orthogonalEdgeStyle;rounded=0;orthogonalLoop=1;jettySize=auto;html=1;exitX=0;exitY=0.5;exitDx=0;exitDy=0;exitPerimeter=0;curved=1;endArrow=none;endFill=0;" parent="1" source="kXjyHpJwVwnROSJy47Iu-20" edge="1">
          <mxGeometry relative="1" as="geometry">
            <mxPoint x="1415" y="1113" as="sourcePoint" />
            <mxPoint x="1346.5" y="1258" as="targetPoint" />
          </mxGeometry>
        </mxCell>
        <mxCell id="kXjyHpJwVwnROSJy47Iu-19" style="edgeStyle=orthogonalEdgeStyle;rounded=0;orthogonalLoop=1;jettySize=auto;html=1;entryX=1;entryY=0.5;entryDx=0;entryDy=0;entryPerimeter=0;curved=1;endArrow=none;endFill=0;exitX=0.57;exitY=0.045;exitDx=0;exitDy=0;exitPerimeter=0;" parent="1" source="kXjyHpJwVwnROSJy47Iu-26" target="kXjyHpJwVwnROSJy47Iu-20" edge="1">
          <mxGeometry relative="1" as="geometry">
            <mxPoint x="1576.5" y="1248" as="sourcePoint" />
            <mxPoint x="1513.98" y="1113" as="targetPoint" />
            <Array as="points">
              <mxPoint x="1586.5" y="1253" />
              <mxPoint x="1586.5" y="1118" />
            </Array>
          </mxGeometry>
        </mxCell>
        <mxCell id="kXjyHpJwVwnROSJy47Iu-20" value="" style="sketch=0;points=[[0.015,0.015,0],[0.985,0.015,0],[0.985,0.985,0],[0.015,0.985,0],[0.25,0,0],[0.5,0,0],[0.75,0,0],[1,0.25,0],[1,0.5,0],[1,0.75,0],[0.75,1,0],[0.5,1,0],[0.25,1,0],[0,0.75,0],[0,0.5,0],[0,0.25,0]];verticalLabelPosition=bottom;html=1;verticalAlign=top;aspect=fixed;align=center;pointerEvents=1;shape=mxgraph.cisco19.rect;prIcon=l2_switch;fillColor=#FAFAFA;strokeColor=#005073;" parent="1" vertex="1">
          <mxGeometry x="1435.5" y="1088" width="60" height="60" as="geometry" />
        </mxCell>
        <mxCell id="kXjyHpJwVwnROSJy47Iu-21" value="" style="sketch=0;points=[[0.015,0.015,0],[0.985,0.015,0],[0.985,0.985,0],[0.015,0.985,0],[0.25,0,0],[0.5,0,0],[0.75,0,0],[1,0.25,0],[1,0.5,0],[1,0.75,0],[0.75,1,0],[0.5,1,0],[0.25,1,0],[0,0.75,0],[0,0.5,0],[0,0.25,0]];verticalLabelPosition=bottom;html=1;verticalAlign=top;aspect=fixed;align=center;pointerEvents=1;shape=mxgraph.cisco19.rect;prIcon=l2_switch;fillColor=#FAFAFA;strokeColor=#005073;" parent="1" vertex="1">
          <mxGeometry x="1743" y="549" width="60" height="60" as="geometry" />
        </mxCell>
        <mxCell id="kXjyHpJwVwnROSJy47Iu-22" value="&lt;p style=&quot;margin: 0px;&quot;&gt;&lt;b&gt;- Serveur SMTP (Mail)&lt;/b&gt;&lt;/p&gt;&lt;p style=&quot;margin: 0px;&quot;&gt;&lt;b&gt;- Serveur DNS publique&lt;br&gt;&lt;/b&gt;&lt;/p&gt;&lt;p style=&quot;margin: 0px;&quot;&gt;&lt;b&gt;- Serveur Proxy WEB (&lt;/b&gt;&lt;span style=&quot;background-color: initial;&quot;&gt;&lt;b&gt;Squid)&lt;/b&gt;&lt;/span&gt;&lt;/p&gt;&lt;b&gt;&lt;br&gt;&lt;/b&gt;&lt;p style=&quot;margin: 0px;&quot;&gt;&lt;br&gt;&lt;/p&gt;" style="text;strokeColor=none;align=left;fillColor=none;html=1;verticalAlign=middle;whiteSpace=wrap;rounded=0;" parent="1" vertex="1">
          <mxGeometry x="2053.5" y="599.06" width="230" height="83.25" as="geometry" />
        </mxCell>
        <mxCell id="kXjyHpJwVwnROSJy47Iu-23" value="&lt;b&gt;VLAN 10 (Etudiant) : 192.168.10.X/24&lt;/b&gt;&lt;div&gt;&lt;b&gt;VLAN 20 (Professeur)&amp;nbsp;&lt;/b&gt;&lt;b style=&quot;background-color: initial;&quot;&gt;: 192.168.20.X/24&lt;/b&gt;&lt;/div&gt;&lt;div&gt;&lt;b&gt;VLAN 30 (Secretariat)&amp;nbsp;&lt;/b&gt;&lt;b style=&quot;background-color: initial;&quot;&gt;: 192.168.30.X/24&lt;/b&gt;&lt;/div&gt;&lt;div&gt;&lt;b&gt;VLAN 40 (Administration)&amp;nbsp;&lt;/b&gt;&lt;b style=&quot;background-color: initial;&quot;&gt;: 192.168.40.X/24&lt;/b&gt;&lt;/div&gt;&lt;div&gt;&lt;b&gt;VLAN 99 (Natif)&amp;nbsp;&lt;/b&gt;&lt;b style=&quot;background-color: initial;&quot;&gt;: 192.168.99.X/24&lt;/b&gt;&lt;/div&gt;" style="text;strokeColor=none;align=left;fillColor=none;html=1;verticalAlign=middle;whiteSpace=wrap;rounded=0;" parent="1" vertex="1">
          <mxGeometry x="1347.5" y="1338" width="260" height="90" as="geometry" />
        </mxCell>
        <mxCell id="kXjyHpJwVwnROSJy47Iu-24" value="&lt;div style=&quot;font-size: 14px;&quot;&gt;Cellule administration et sécurité (SOC)&lt;br style=&quot;font-size: 14px;&quot;&gt;&lt;/div&gt;&lt;div style=&quot;font-size: 14px;&quot;&gt;&lt;br style=&quot;font-size: 14px;&quot;&gt;&lt;/div&gt;" style="text;strokeColor=none;align=left;fillColor=none;html=1;verticalAlign=middle;whiteSpace=wrap;rounded=0;fontStyle=5;fontSize=14;" parent="1" vertex="1">
          <mxGeometry x="50" y="340" width="283" height="90" as="geometry" />
        </mxCell>
        <mxCell id="kXjyHpJwVwnROSJy47Iu-25" value="" style="image;sketch=0;aspect=fixed;html=1;points=[];align=center;fontSize=12;image=img/lib/mscae/VirtualMachineWindows.svg;" parent="1" vertex="1">
          <mxGeometry x="1311.5900000000001" y="1250" width="73.91" height="68" as="geometry" />
        </mxCell>
        <mxCell id="kXjyHpJwVwnROSJy47Iu-26" value="" style="image;sketch=0;aspect=fixed;html=1;points=[];align=center;fontSize=12;image=img/lib/mscae/VM_Linux.svg;" parent="1" vertex="1">
          <mxGeometry x="1556.5" y="1250" width="73.91" height="68" as="geometry" />
        </mxCell>
        <mxCell id="kXjyHpJwVwnROSJy47Iu-27" value="" style="html=1;strokeWidth=1;shadow=0;dashed=0;shape=mxgraph.ios7.misc.vpn;fillColor=#007AFF;strokeColor=none;buttonText=;strokeColor2=#222222;fontColor=#222222;fontSize=8;verticalLabelPosition=bottom;verticalAlign=top;align=center;sketch=0;" parent="1" vertex="1">
          <mxGeometry x="1285" y="461.25" width="38" height="35" as="geometry" />
        </mxCell>
        <mxCell id="kXjyHpJwVwnROSJy47Iu-28" value="" style="sketch=0;points=[[0.015,0.015,0],[0.985,0.015,0],[0.985,0.985,0],[0.015,0.985,0],[0.25,0,0],[0.5,0,0],[0.75,0,0],[1,0.25,0],[1,0.5,0],[1,0.75,0],[0.75,1,0],[0.5,1,0],[0.25,1,0],[0,0.75,0],[0,0.5,0],[0,0.25,0]];verticalLabelPosition=bottom;html=1;verticalAlign=top;aspect=fixed;align=center;pointerEvents=1;shape=mxgraph.cisco19.rect;prIcon=ips_ids;fillColor=#FAFAFA;strokeColor=#005073;" parent="1" vertex="1">
          <mxGeometry x="1305.5" y="841.19" width="74" height="57.81" as="geometry" />
        </mxCell>
        <mxCell id="kXjyHpJwVwnROSJy47Iu-29" value="IPS (Inline)" style="text;strokeColor=none;align=center;fillColor=none;html=1;verticalAlign=middle;whiteSpace=wrap;rounded=0;fontStyle=1" parent="1" vertex="1">
          <mxGeometry x="1450" y="609" width="63" height="30" as="geometry" />
        </mxCell>
        <mxCell id="kXjyHpJwVwnROSJy47Iu-30" value="&lt;p style=&quot;margin: 0px;&quot;&gt;&lt;b style=&quot;background-color: initial;&quot;&gt;- Serveur WEB &amp;amp; &lt;/b&gt;&lt;b&gt;BDD&lt;/b&gt;&lt;/p&gt;&lt;p style=&quot;margin: 0px;&quot;&gt;&lt;b style=&quot;background-color: initial;&quot;&gt;- Protection WAF Applicative&lt;/b&gt;&lt;/p&gt;&lt;b&gt;&lt;br&gt;&lt;/b&gt;&lt;p style=&quot;margin: 0px;&quot;&gt;&lt;br&gt;&lt;/p&gt;" style="text;strokeColor=none;align=left;fillColor=none;html=1;verticalAlign=middle;whiteSpace=wrap;rounded=0;" parent="1" vertex="1">
          <mxGeometry x="2053.5" y="511.93" width="230" height="60.75" as="geometry" />
        </mxCell>
        <mxCell id="kXjyHpJwVwnROSJy47Iu-31" value="" style="image;aspect=fixed;perimeter=ellipsePerimeter;html=1;align=center;shadow=0;dashed=0;spacingTop=3;image=img/lib/active_directory/web_server.svg;" parent="1" vertex="1">
          <mxGeometry x="1976.5" y="477.68" width="76" height="95" as="geometry" />
        </mxCell>
        <mxCell id="kXjyHpJwVwnROSJy47Iu-32" value="" style="sketch=0;points=[[0,0,0],[0.25,0,0],[0.5,0,0],[0.75,0,0],[1,0,0],[0,1,0],[0.25,1,0],[0.5,1,0],[0.75,1,0],[1,1,0],[0,0.25,0],[0,0.5,0],[0,0.75,0],[1,0.25,0],[1,0.5,0],[1,0.75,0]];outlineConnect=0;fontColor=#232F3E;fillColor=#DD344C;strokeColor=#ffffff;dashed=0;verticalLabelPosition=bottom;verticalAlign=top;align=center;html=1;fontSize=12;fontStyle=0;aspect=fixed;shape=mxgraph.aws4.resourceIcon;resIcon=mxgraph.aws4.waf;" parent="1" vertex="1">
          <mxGeometry x="1933" y="511.93" width="29.5" height="29.5" as="geometry" />
        </mxCell>
        <mxCell id="kXjyHpJwVwnROSJy47Iu-33" style="edgeStyle=orthogonalEdgeStyle;rounded=0;orthogonalLoop=1;jettySize=auto;html=1;exitX=1;exitY=0.5;exitDx=0;exitDy=0;entryX=0;entryY=0.5;entryDx=0;entryDy=0;entryPerimeter=0;endArrow=none;endFill=0;" parent="1" source="kXjyHpJwVwnROSJy47Iu-8" target="kXjyHpJwVwnROSJy47Iu-13" edge="1">
          <mxGeometry relative="1" as="geometry">
            <mxPoint x="1443" y="581.0050000000001" as="targetPoint" />
          </mxGeometry>
        </mxCell>
        <mxCell id="kXjyHpJwVwnROSJy47Iu-34" style="edgeStyle=orthogonalEdgeStyle;rounded=0;orthogonalLoop=1;jettySize=auto;html=1;exitX=1;exitY=0.5;exitDx=0;exitDy=0;exitPerimeter=0;entryX=0;entryY=0.5;entryDx=0;entryDy=0;entryPerimeter=0;endArrow=none;endFill=0;" parent="1" source="kXjyHpJwVwnROSJy47Iu-28" target="kXjyHpJwVwnROSJy47Iu-11" edge="1">
          <mxGeometry relative="1" as="geometry" />
        </mxCell>
        <mxCell id="kXjyHpJwVwnROSJy47Iu-35" style="edgeStyle=orthogonalEdgeStyle;rounded=0;orthogonalLoop=1;jettySize=auto;html=1;exitX=0.5;exitY=1;exitDx=0;exitDy=0;exitPerimeter=0;curved=1;endArrow=none;endFill=0;" parent="1" source="kXjyHpJwVwnROSJy47Iu-36" target="kXjyHpJwVwnROSJy47Iu-14" edge="1">
          <mxGeometry relative="1" as="geometry" />
        </mxCell>
        <mxCell id="kXjyHpJwVwnROSJy47Iu-36" value="" style="sketch=0;points=[[0.015,0.015,0],[0.985,0.015,0],[0.985,0.985,0],[0.015,0.985,0],[0.25,0,0],[0.5,0,0],[0.75,0,0],[1,0.25,0],[1,0.5,0],[1,0.75,0],[0.75,1,0],[0.5,1,0],[0.25,1,0],[0,0.75,0],[0,0.5,0],[0,0.25,0]];verticalLabelPosition=bottom;html=1;verticalAlign=top;aspect=fixed;align=center;pointerEvents=1;shape=mxgraph.cisco19.rect;prIcon=ips_ids;fillColor=#FAFAFA;strokeColor=#005073;" parent="1" vertex="1">
          <mxGeometry x="718" y="392.94" width="74" height="57.81" as="geometry" />
        </mxCell>
        <mxCell id="kXjyHpJwVwnROSJy47Iu-37" value="" style="edgeStyle=orthogonalEdgeStyle;rounded=0;orthogonalLoop=1;jettySize=auto;html=1;exitX=0.5;exitY=0;exitDx=0;exitDy=0;entryX=0.5;entryY=1;entryDx=0;entryDy=0;entryPerimeter=0;endArrow=none;endFill=0;" parent="1" source="kXjyHpJwVwnROSJy47Iu-8" target="kXjyHpJwVwnROSJy47Iu-9" edge="1">
          <mxGeometry relative="1" as="geometry">
            <mxPoint x="1182" y="540" as="sourcePoint" />
            <mxPoint x="1182.0000000000005" y="461.25" as="targetPoint" />
          </mxGeometry>
        </mxCell>
        <mxCell id="kXjyHpJwVwnROSJy47Iu-38" value="FAI" style="text;strokeColor=none;align=center;fillColor=none;html=1;verticalAlign=middle;whiteSpace=wrap;rounded=0;fontStyle=1" parent="1" vertex="1">
          <mxGeometry x="1149" y="180" width="60" height="30" as="geometry" />
        </mxCell>
        <mxCell id="kXjyHpJwVwnROSJy47Iu-39" value="" style="sketch=0;points=[[0.015,0.015,0],[0.985,0.015,0],[0.985,0.985,0],[0.015,0.985,0],[0.25,0,0],[0.5,0,0],[0.75,0,0],[1,0.25,0],[1,0.5,0],[1,0.75,0],[0.75,1,0],[0.5,1,0],[0.25,1,0],[0,0.75,0],[0,0.5,0],[0,0.25,0]];verticalLabelPosition=bottom;html=1;verticalAlign=top;aspect=fixed;align=center;pointerEvents=1;shape=mxgraph.cisco19.rect;prIcon=ips_ids;fillColor=#FAFAFA;strokeColor=#005073;" parent="1" vertex="1">
          <mxGeometry x="1578" y="663.19" width="74" height="57.81" as="geometry" />
        </mxCell>
        <mxCell id="kXjyHpJwVwnROSJy47Iu-40" value="IDPS (Mode IDS vers SIEM)" style="text;strokeColor=none;align=center;fillColor=none;html=1;verticalAlign=middle;whiteSpace=wrap;rounded=0;fontStyle=1" parent="1" vertex="1">
          <mxGeometry x="1562.75" y="726" width="104.5" height="30" as="geometry" />
        </mxCell>
        <mxCell id="kXjyHpJwVwnROSJy47Iu-41" style="edgeStyle=orthogonalEdgeStyle;rounded=0;orthogonalLoop=1;jettySize=auto;html=1;exitX=0.5;exitY=0;exitDx=0;exitDy=0;exitPerimeter=0;entryX=0.5;entryY=1;entryDx=0;entryDy=0;entryPerimeter=0;endArrow=none;endFill=0;" parent="1" source="kXjyHpJwVwnROSJy47Iu-39" target="kXjyHpJwVwnROSJy47Iu-13" edge="1">
          <mxGeometry relative="1" as="geometry" />
        </mxCell>
        <mxCell id="kXjyHpJwVwnROSJy47Iu-42" value="" style="image;sketch=0;aspect=fixed;html=1;points=[];align=center;fontSize=12;image=img/lib/mscae/VM_Linux.svg;" parent="1" vertex="1">
          <mxGeometry x="390.82" y="677.01" width="82.18" height="75.61" as="geometry" />
        </mxCell>
        <mxCell id="kXjyHpJwVwnROSJy47Iu-43" value="" style="image;sketch=0;aspect=fixed;html=1;points=[];align=center;fontSize=12;image=img/lib/mscae/VirtualMachineWindows.svg;" parent="1" vertex="1">
          <mxGeometry x="393.00000000000006" y="393.25" width="73.91" height="68" as="geometry" />
        </mxCell>
        <mxCell id="kXjyHpJwVwnROSJy47Iu-44" value="NET_OUT" style="text;strokeColor=none;align=center;fillColor=none;html=1;verticalAlign=middle;whiteSpace=wrap;rounded=0;" parent="1" vertex="1">
          <mxGeometry x="1123" y="431.25" width="60" height="30" as="geometry" />
        </mxCell>
        <mxCell id="kXjyHpJwVwnROSJy47Iu-45" value="NET_VPN" style="text;strokeColor=none;align=center;fillColor=none;html=1;verticalAlign=middle;whiteSpace=wrap;rounded=0;" parent="1" vertex="1">
          <mxGeometry x="1225" y="492" width="60" height="30" as="geometry" />
        </mxCell>
        <mxCell id="kXjyHpJwVwnROSJy47Iu-46" value="NET_DMZ" style="text;strokeColor=none;align=center;fillColor=none;html=1;verticalAlign=middle;whiteSpace=wrap;rounded=0;" parent="1" vertex="1">
          <mxGeometry x="1313" y="575" width="60" height="30" as="geometry" />
        </mxCell>
        <mxCell id="kXjyHpJwVwnROSJy47Iu-47" value="NET_SOC" style="text;strokeColor=none;align=center;fillColor=none;html=1;verticalAlign=middle;whiteSpace=wrap;rounded=0;" parent="1" vertex="1">
          <mxGeometry x="1023" y="575" width="60" height="30" as="geometry" />
        </mxCell>
        <mxCell id="kXjyHpJwVwnROSJy47Iu-48" value="NET_LAN" style="text;strokeColor=none;align=center;fillColor=none;html=1;verticalAlign=middle;whiteSpace=wrap;rounded=0;" parent="1" vertex="1">
          <mxGeometry x="1251.5900000000001" y="711" width="60" height="30" as="geometry" />
        </mxCell>
        <mxCell id="kXjyHpJwVwnROSJy47Iu-49" style="edgeStyle=orthogonalEdgeStyle;rounded=0;orthogonalLoop=1;jettySize=auto;html=1;exitX=1;exitY=0.5;exitDx=0;exitDy=0;exitPerimeter=0;curved=1;endArrow=none;endFill=0;" parent="1" source="kXjyHpJwVwnROSJy47Iu-50" target="kXjyHpJwVwnROSJy47Iu-14" edge="1">
          <mxGeometry relative="1" as="geometry">
            <mxPoint x="703" y="585.5000000000002" as="targetPoint" />
          </mxGeometry>
        </mxCell>
        <mxCell id="kXjyHpJwVwnROSJy47Iu-50" value="" style="sketch=0;points=[[0.015,0.015,0],[0.985,0.015,0],[0.985,0.985,0],[0.015,0.985,0],[0.25,0,0],[0.5,0,0],[0.75,0,0],[1,0.25,0],[1,0.5,0],[1,0.75,0],[0.75,1,0],[0.5,1,0],[0.25,1,0],[0,0.75,0],[0,0.5,0],[0,0.25,0]];verticalLabelPosition=bottom;html=1;verticalAlign=top;aspect=fixed;align=center;pointerEvents=1;shape=mxgraph.cisco19.rect;prIcon=l2_switch;fillColor=#FAFAFA;strokeColor=#005073;" parent="1" vertex="1">
          <mxGeometry x="571.3199999999999" y="549.01" width="60" height="60" as="geometry" />
        </mxCell>
        <mxCell id="kXjyHpJwVwnROSJy47Iu-51" value="" style="shape=mxgraph.cisco.servers.fileserver;sketch=0;html=1;pointerEvents=1;dashed=0;fillColor=#036897;strokeColor=#ffffff;strokeWidth=2;verticalLabelPosition=bottom;verticalAlign=top;align=center;outlineConnect=0;" parent="1" vertex="1">
          <mxGeometry x="294" y="578" width="69" height="92" as="geometry" />
        </mxCell>
        <mxCell id="kXjyHpJwVwnROSJy47Iu-52" style="edgeStyle=orthogonalEdgeStyle;rounded=0;orthogonalLoop=1;jettySize=auto;html=1;exitX=0;exitY=0.5;exitDx=0;exitDy=0;exitPerimeter=0;entryX=1;entryY=0.5;entryDx=0;entryDy=0;entryPerimeter=0;curved=1;endArrow=none;endFill=0;" parent="1" source="kXjyHpJwVwnROSJy47Iu-50" target="kXjyHpJwVwnROSJy47Iu-51" edge="1">
          <mxGeometry relative="1" as="geometry" />
        </mxCell>
        <mxCell id="kXjyHpJwVwnROSJy47Iu-53" style="edgeStyle=entityRelationEdgeStyle;rounded=0;orthogonalLoop=1;jettySize=auto;html=1;exitX=0.5;exitY=0;exitDx=0;exitDy=0;exitPerimeter=0;entryX=0;entryY=1;entryDx=0;entryDy=0;endArrow=none;endFill=0;" parent="1" source="kXjyHpJwVwnROSJy47Iu-59" target="kXjyHpJwVwnROSJy47Iu-8" edge="1">
          <mxGeometry relative="1" as="geometry">
            <mxPoint x="916.5900000000001" y="850" as="sourcePoint" />
          </mxGeometry>
        </mxCell>
        <mxCell id="kXjyHpJwVwnROSJy47Iu-54" value="NET_INTRA" style="text;strokeColor=none;align=center;fillColor=none;html=1;verticalAlign=middle;whiteSpace=wrap;rounded=0;" parent="1" vertex="1">
          <mxGeometry x="983" y="719.01" width="60" height="30" as="geometry" />
        </mxCell>
        <mxCell id="kXjyHpJwVwnROSJy47Iu-55" style="edgeStyle=entityRelationEdgeStyle;rounded=0;orthogonalLoop=1;jettySize=auto;html=1;exitX=1;exitY=0.5;exitDx=0;exitDy=0;exitPerimeter=0;endArrow=none;endFill=0;" parent="1" source="kXjyHpJwVwnROSJy47Iu-56" target="kXjyHpJwVwnROSJy47Iu-59" edge="1">
          <mxGeometry relative="1" as="geometry" />
        </mxCell>
        <mxCell id="kXjyHpJwVwnROSJy47Iu-56" value="" style="sketch=0;points=[[0.015,0.015,0],[0.985,0.015,0],[0.985,0.985,0],[0.015,0.985,0],[0.25,0,0],[0.5,0,0],[0.75,0,0],[1,0.25,0],[1,0.5,0],[1,0.75,0],[0.75,1,0],[0.5,1,0],[0.25,1,0],[0,0.75,0],[0,0.5,0],[0,0.25,0]];verticalLabelPosition=bottom;html=1;verticalAlign=top;aspect=fixed;align=center;pointerEvents=1;shape=mxgraph.cisco19.rect;prIcon=l2_switch;fillColor=#FAFAFA;strokeColor=#005073;" parent="1" vertex="1">
          <mxGeometry x="673" y="996.0000000000001" width="60" height="60" as="geometry" />
        </mxCell>
        <mxCell id="kXjyHpJwVwnROSJy47Iu-57" value="" style="shape=mxgraph.cisco.servers.fileserver;sketch=0;html=1;pointerEvents=1;dashed=0;fillColor=#036897;strokeColor=#ffffff;strokeWidth=2;verticalLabelPosition=bottom;verticalAlign=top;align=center;outlineConnect=0;" parent="1" vertex="1">
          <mxGeometry x="498.32" y="899.0000000000001" width="69" height="92" as="geometry" />
        </mxCell>
        <mxCell id="kXjyHpJwVwnROSJy47Iu-58" style="edgeStyle=orthogonalEdgeStyle;rounded=0;orthogonalLoop=1;jettySize=auto;html=1;exitX=0;exitY=0.5;exitDx=0;exitDy=0;exitPerimeter=0;entryX=1;entryY=0.5;entryDx=0;entryDy=0;entryPerimeter=0;curved=1;endArrow=none;endFill=0;" parent="1" source="kXjyHpJwVwnROSJy47Iu-56" target="kXjyHpJwVwnROSJy47Iu-57" edge="1">
          <mxGeometry relative="1" as="geometry" />
        </mxCell>
        <mxCell id="kXjyHpJwVwnROSJy47Iu-59" value="" style="shape=mxgraph.cisco.switches.layer_3_switch;sketch=0;html=1;pointerEvents=1;dashed=0;fillColor=#036897;strokeColor=#ffffff;strokeWidth=2;verticalLabelPosition=bottom;verticalAlign=top;align=center;outlineConnect=0;" parent="1" vertex="1">
          <mxGeometry x="885" y="850.0000000000001" width="64" height="64" as="geometry" />
        </mxCell>
        <mxCell id="kXjyHpJwVwnROSJy47Iu-60" value="" style="sketch=0;points=[[0.015,0.015,0],[0.985,0.015,0],[0.985,0.985,0],[0.015,0.985,0],[0.25,0,0],[0.5,0,0],[0.75,0,0],[1,0.25,0],[1,0.5,0],[1,0.75,0],[0.75,1,0],[0.5,1,0],[0.25,1,0],[0,0.75,0],[0,0.5,0],[0,0.25,0]];verticalLabelPosition=bottom;html=1;verticalAlign=top;aspect=fixed;align=center;pointerEvents=1;shape=mxgraph.cisco19.rect;prIcon=ips_ids;fillColor=#FAFAFA;strokeColor=#005073;" parent="1" vertex="1">
          <mxGeometry x="880" y="1122" width="74" height="57.81" as="geometry" />
        </mxCell>
        <mxCell id="kXjyHpJwVwnROSJy47Iu-61" style="edgeStyle=orthogonalEdgeStyle;rounded=0;orthogonalLoop=1;jettySize=auto;html=1;exitX=0.5;exitY=1;exitDx=0;exitDy=0;exitPerimeter=0;entryX=0.5;entryY=0;entryDx=0;entryDy=0;entryPerimeter=0;endArrow=none;endFill=0;" parent="1" source="kXjyHpJwVwnROSJy47Iu-59" target="kXjyHpJwVwnROSJy47Iu-60" edge="1">
          <mxGeometry relative="1" as="geometry" />
        </mxCell>
        <mxCell id="kXjyHpJwVwnROSJy47Iu-62" value="" style="image;aspect=fixed;perimeter=ellipsePerimeter;html=1;align=center;shadow=0;dashed=0;spacingTop=3;image=img/lib/active_directory/domain_controller.svg;" parent="1" vertex="1">
          <mxGeometry x="289.99999999999994" y="450.75" width="77" height="110" as="geometry" />
        </mxCell>
        <mxCell id="kXjyHpJwVwnROSJy47Iu-63" style="edgeStyle=orthogonalEdgeStyle;rounded=0;orthogonalLoop=1;jettySize=auto;html=1;exitX=0.5;exitY=1;exitDx=0;exitDy=0;exitPerimeter=0;entryX=0.996;entryY=0.488;entryDx=0;entryDy=0;entryPerimeter=0;curved=1;endArrow=none;endFill=0;" parent="1" source="kXjyHpJwVwnROSJy47Iu-50" target="kXjyHpJwVwnROSJy47Iu-42" edge="1">
          <mxGeometry relative="1" as="geometry" />
        </mxCell>
        <mxCell id="kXjyHpJwVwnROSJy47Iu-64" style="edgeStyle=orthogonalEdgeStyle;rounded=0;orthogonalLoop=1;jettySize=auto;html=1;exitX=1;exitY=0.5;exitDx=0;exitDy=0;entryX=0;entryY=0.25;entryDx=0;entryDy=0;entryPerimeter=0;endArrow=none;endFill=0;curved=1;" parent="1" source="kXjyHpJwVwnROSJy47Iu-62" target="kXjyHpJwVwnROSJy47Iu-50" edge="1">
          <mxGeometry relative="1" as="geometry" />
        </mxCell>
        <mxCell id="kXjyHpJwVwnROSJy47Iu-65" style="edgeStyle=orthogonalEdgeStyle;rounded=0;orthogonalLoop=1;jettySize=auto;html=1;exitX=0.25;exitY=0;exitDx=0;exitDy=0;exitPerimeter=0;entryX=0.999;entryY=0.269;entryDx=0;entryDy=0;entryPerimeter=0;endArrow=none;endFill=0;curved=1;" parent="1" source="kXjyHpJwVwnROSJy47Iu-50" target="kXjyHpJwVwnROSJy47Iu-43" edge="1">
          <mxGeometry relative="1" as="geometry" />
        </mxCell>
        <mxCell id="kXjyHpJwVwnROSJy47Iu-66" value="&lt;div&gt;- Serveur SOAR (Wasuh)&lt;br&gt;- Serveur SIEM (Wasuh)&lt;/div&gt;&lt;div&gt;- Serveur EDR (Wasuh)&lt;br&gt;&lt;/div&gt;&lt;div&gt;- Serveur Supervision Zabbix&lt;/div&gt;&lt;div&gt;- Serveur déploiement Ansible&lt;/div&gt;" style="text;strokeColor=none;align=left;fillColor=none;html=1;verticalAlign=middle;whiteSpace=wrap;rounded=0;fontStyle=1" parent="1" vertex="1">
          <mxGeometry x="53" y="587.01" width="241" height="90" as="geometry" />
        </mxCell>
        <mxCell id="kXjyHpJwVwnROSJy47Iu-67" value="- Serveur DC foret administration" style="text;strokeColor=none;align=left;fillColor=none;html=1;verticalAlign=middle;whiteSpace=wrap;rounded=0;fontStyle=1" parent="1" vertex="1">
          <mxGeometry x="89.5" y="470.75" width="219" height="90" as="geometry" />
        </mxCell>
        <mxCell id="kXjyHpJwVwnROSJy47Iu-68" value="&lt;div&gt;- Serveur partage de fichiers (NextCloud)&lt;/div&gt;&lt;div&gt;&lt;p style=&quot;margin: 0px;&quot;&gt;&lt;b&gt;- Serveur de backup (Veeam)&lt;/b&gt;&lt;/p&gt;&lt;p style=&quot;margin: 0px;&quot;&gt;&lt;b&gt;- Serveur DHCP&lt;/b&gt;&lt;/p&gt;&lt;p style=&quot;margin: 0px;&quot;&gt;&lt;b&gt;- Serveur de ticketing (GLPI)&lt;/b&gt;&lt;/p&gt;&lt;p style=&quot;text-align: left; margin: 0px;&quot;&gt;&lt;b&gt;- Serveur RADIUS/TACACS+&lt;/b&gt;&lt;/p&gt;&lt;p style=&quot;margin: 0px;&quot;&gt;&lt;/p&gt;&lt;/div&gt;" style="text;strokeColor=none;align=left;fillColor=none;html=1;verticalAlign=middle;whiteSpace=wrap;rounded=0;fontStyle=1" parent="1" vertex="1">
          <mxGeometry x="317.72999999999996" y="901" width="219" height="90" as="geometry" />
        </mxCell>
        <mxCell id="kXjyHpJwVwnROSJy47Iu-69" value="Réseau intranet (ressources non externalisé accessible via réseau interne ou VPN)" style="text;strokeColor=none;align=center;fillColor=none;html=1;verticalAlign=middle;whiteSpace=wrap;rounded=0;fontStyle=1;fontSize=14;" parent="1" vertex="1">
          <mxGeometry x="248.5" y="800" width="594.5" height="50" as="geometry" />
        </mxCell>
        <mxCell id="kXjyHpJwVwnROSJy47Iu-70" value="Réseau DMZ (ressources externalisé sans connexion ou VPN)" style="text;strokeColor=none;align=center;fillColor=none;html=1;verticalAlign=middle;whiteSpace=wrap;rounded=0;fontStyle=1;fontSize=14;" parent="1" vertex="1">
          <mxGeometry x="1423" y="421.25" width="430" height="50" as="geometry" />
        </mxCell>
        <mxCell id="kXjyHpJwVwnROSJy47Iu-71" value="VLAN 100 : SOC" style="text;strokeColor=none;align=center;fillColor=none;html=1;verticalAlign=middle;whiteSpace=wrap;rounded=0;" parent="1" vertex="1">
          <mxGeometry x="760" y="726" width="120" height="30" as="geometry" />
        </mxCell>
        <mxCell id="kXjyHpJwVwnROSJy47Iu-72" value="VLAN 200 : INTRANET" style="text;strokeColor=none;align=center;fillColor=none;html=1;verticalAlign=middle;whiteSpace=wrap;rounded=0;" parent="1" vertex="1">
          <mxGeometry x="243" y="1210" width="170" height="30" as="geometry" />
        </mxCell>
        <mxCell id="kXjyHpJwVwnROSJy47Iu-73" value="VLAN 300 : DMZ" style="text;strokeColor=none;align=center;fillColor=none;html=1;verticalAlign=middle;whiteSpace=wrap;rounded=0;" parent="1" vertex="1">
          <mxGeometry x="2253" y="735" width="120" height="30" as="geometry" />
        </mxCell>
        <mxCell id="kXjyHpJwVwnROSJy47Iu-74" value="" style="image;aspect=fixed;perimeter=ellipsePerimeter;html=1;align=center;shadow=0;dashed=0;spacingTop=3;image=img/lib/active_directory/domain_controller.svg;" parent="1" vertex="1">
          <mxGeometry x="494.32" y="1038" width="77" height="110" as="geometry" />
        </mxCell>
        <mxCell id="kXjyHpJwVwnROSJy47Iu-75" value="&lt;p style=&quot;text-align: left; margin: 0px;&quot;&gt;&lt;b&gt;- Serveur DC foret 1 &lt;br&gt;&lt;/b&gt;&lt;/p&gt;" style="text;strokeColor=none;align=center;fillColor=none;html=1;verticalAlign=middle;whiteSpace=wrap;rounded=0;" parent="1" vertex="1">
          <mxGeometry x="353.32" y="1077.5" width="141" height="31" as="geometry" />
        </mxCell>
        <mxCell id="kXjyHpJwVwnROSJy47Iu-76" style="edgeStyle=orthogonalEdgeStyle;rounded=0;orthogonalLoop=1;jettySize=auto;html=1;exitX=1;exitY=0.5;exitDx=0;exitDy=0;entryX=0;entryY=0.75;entryDx=0;entryDy=0;entryPerimeter=0;curved=1;endArrow=none;endFill=0;" parent="1" source="kXjyHpJwVwnROSJy47Iu-74" target="kXjyHpJwVwnROSJy47Iu-56" edge="1">
          <mxGeometry relative="1" as="geometry" />
        </mxCell>
        <mxCell id="kXjyHpJwVwnROSJy47Iu-77" value="" style="edgeStyle=orthogonalEdgeStyle;rounded=0;orthogonalLoop=1;jettySize=auto;html=1;exitX=0;exitY=0.5;exitDx=0;exitDy=0;endArrow=none;endFill=0;curved=1;" parent="1" source="kXjyHpJwVwnROSJy47Iu-8" target="kXjyHpJwVwnROSJy47Iu-14" edge="1">
          <mxGeometry relative="1" as="geometry">
            <mxPoint x="1142" y="580" as="sourcePoint" />
            <mxPoint x="973" y="578.9950000000003" as="targetPoint" />
          </mxGeometry>
        </mxCell>
        <mxCell id="kXjyHpJwVwnROSJy47Iu-78" value="IDPS (Mode IDS vers SIEM)" style="text;whiteSpace=wrap;html=1;fontStyle=1" parent="1" vertex="1">
          <mxGeometry x="1258.54" y="902" width="180" height="40" as="geometry" />
        </mxCell>
        <mxCell id="kXjyHpJwVwnROSJy47Iu-79" value="IDPS (Mode IDS vers SIEM)" style="text;whiteSpace=wrap;html=1;fontStyle=1" parent="1" vertex="1">
          <mxGeometry x="843" y="1179.81" width="180" height="40" as="geometry" />
        </mxCell>
        <mxCell id="kXjyHpJwVwnROSJy47Iu-80" value="IDPS (Mode IDS vers SIEM)" style="text;whiteSpace=wrap;html=1;fontStyle=1" parent="1" vertex="1">
          <mxGeometry x="673" y="365" width="180" height="40" as="geometry" />
        </mxCell>
        <mxCell id="1tEm5xEd0jEl-nkEfbYp-1" value="" style="image;html=1;image=img/lib/clip_art/networking/Firewall_02_128x128.png" vertex="1" parent="1">
          <mxGeometry x="3452" y="299.99999999999994" width="80" height="80" as="geometry" />
        </mxCell>
        <mxCell id="1tEm5xEd0jEl-nkEfbYp-4" value="" style="shape=mxgraph.cisco.routers.router;sketch=0;html=1;pointerEvents=1;dashed=0;fillColor=#036897;strokeColor=#ffffff;strokeWidth=2;verticalLabelPosition=bottom;verticalAlign=top;align=center;outlineConnect=0;" vertex="1" parent="1">
          <mxGeometry x="3526" y="120" width="78" height="53" as="geometry" />
        </mxCell>
        <mxCell id="1tEm5xEd0jEl-nkEfbYp-10" value="" style="shape=mxgraph.cisco.servers.fileserver;sketch=0;html=1;pointerEvents=1;dashed=0;fillColor=#036897;strokeColor=#ffffff;strokeWidth=2;verticalLabelPosition=bottom;verticalAlign=top;align=center;outlineConnect=0;" vertex="1" parent="1">
          <mxGeometry x="2740" y="436.94" width="69" height="92" as="geometry" />
        </mxCell>
        <mxCell id="1tEm5xEd0jEl-nkEfbYp-15" value="" style="shape=mxgraph.cisco.servers.fileserver;sketch=0;html=1;pointerEvents=1;dashed=0;fillColor=#036897;strokeColor=#ffffff;strokeWidth=2;verticalLabelPosition=bottom;verticalAlign=top;align=center;outlineConnect=0;" vertex="1" parent="1">
          <mxGeometry x="2750" y="607.6200000000001" width="69" height="92" as="geometry" />
        </mxCell>
        <mxCell id="1tEm5xEd0jEl-nkEfbYp-17" value="" style="shape=mxgraph.cisco.switches.layer_3_switch;sketch=0;html=1;pointerEvents=1;dashed=0;fillColor=#036897;strokeColor=#ffffff;strokeWidth=2;verticalLabelPosition=bottom;verticalAlign=top;align=center;outlineConnect=0;" vertex="1" parent="1">
          <mxGeometry x="3460" y="504.25" width="64" height="64" as="geometry" />
        </mxCell>
        <mxCell id="1tEm5xEd0jEl-nkEfbYp-19" value="" style="image;html=1;image=img/lib/clip_art/networking/Firewall_02_128x128.png" vertex="1" parent="1">
          <mxGeometry x="3110" y="503.95" width="80" height="80" as="geometry" />
        </mxCell>
        <mxCell id="1tEm5xEd0jEl-nkEfbYp-20" value="" style="shape=mxgraph.cisco.switches.layer_3_switch;sketch=0;html=1;pointerEvents=1;dashed=0;fillColor=#036897;strokeColor=#ffffff;strokeWidth=2;verticalLabelPosition=bottom;verticalAlign=top;align=center;outlineConnect=0;" vertex="1" parent="1">
          <mxGeometry x="3620" y="504.25" width="64" height="64" as="geometry" />
        </mxCell>
        <mxCell id="1tEm5xEd0jEl-nkEfbYp-21" value="" style="sketch=0;points=[[0.015,0.015,0],[0.985,0.015,0],[0.985,0.985,0],[0.015,0.985,0],[0.25,0,0],[0.5,0,0],[0.75,0,0],[1,0.25,0],[1,0.5,0],[1,0.75,0],[0.75,1,0],[0.5,1,0],[0.25,1,0],[0,0.75,0],[0,0.5,0],[0,0.25,0]];verticalLabelPosition=bottom;html=1;verticalAlign=top;aspect=fixed;align=center;pointerEvents=1;shape=mxgraph.cisco19.rect;prIcon=l2_switch;fillColor=#FAFAFA;strokeColor=#005073;" vertex="1" parent="1">
          <mxGeometry x="3360" y="663.19" width="60" height="60" as="geometry" />
        </mxCell>
        <mxCell id="1tEm5xEd0jEl-nkEfbYp-22" value="" style="shape=mxgraph.cisco.switches.layer_3_switch;sketch=0;html=1;pointerEvents=1;dashed=0;fillColor=#036897;strokeColor=#ffffff;strokeWidth=2;verticalLabelPosition=bottom;verticalAlign=top;align=center;outlineConnect=0;" vertex="1" parent="1">
          <mxGeometry x="3000" y="523.94" width="64" height="64" as="geometry" />
        </mxCell>
        <mxCell id="1tEm5xEd0jEl-nkEfbYp-23" value="" style="sketch=0;points=[[0.015,0.015,0],[0.985,0.015,0],[0.985,0.985,0],[0.015,0.985,0],[0.25,0,0],[0.5,0,0],[0.75,0,0],[1,0.25,0],[1,0.5,0],[1,0.75,0],[0.75,1,0],[0.5,1,0],[0.25,1,0],[0,0.75,0],[0,0.5,0],[0,0.25,0]];verticalLabelPosition=bottom;html=1;verticalAlign=top;aspect=fixed;align=center;pointerEvents=1;shape=mxgraph.cisco19.rect;prIcon=l2_switch;fillColor=#FAFAFA;strokeColor=#005073;" vertex="1" parent="1">
          <mxGeometry x="2880" y="452.94" width="60" height="60" as="geometry" />
        </mxCell>
        <mxCell id="1tEm5xEd0jEl-nkEfbYp-24" value="" style="sketch=0;points=[[0.015,0.015,0],[0.985,0.015,0],[0.985,0.985,0],[0.015,0.985,0],[0.25,0,0],[0.5,0,0],[0.75,0,0],[1,0.25,0],[1,0.5,0],[1,0.75,0],[0.75,1,0],[0.5,1,0],[0.25,1,0],[0,0.75,0],[0,0.5,0],[0,0.25,0]];verticalLabelPosition=bottom;html=1;verticalAlign=top;aspect=fixed;align=center;pointerEvents=1;shape=mxgraph.cisco19.rect;prIcon=l2_switch;fillColor=#FAFAFA;strokeColor=#005073;" vertex="1" parent="1">
          <mxGeometry x="2880" y="622.94" width="61" height="61" as="geometry" />
        </mxCell>
        <mxCell id="1tEm5xEd0jEl-nkEfbYp-25" value="" style="sketch=0;points=[[0.015,0.015,0],[0.985,0.015,0],[0.985,0.985,0],[0.015,0.985,0],[0.25,0,0],[0.5,0,0],[0.75,0,0],[1,0.25,0],[1,0.5,0],[1,0.75,0],[0.75,1,0],[0.5,1,0],[0.25,1,0],[0,0.75,0],[0,0.5,0],[0,0.25,0]];verticalLabelPosition=bottom;html=1;verticalAlign=top;aspect=fixed;align=center;pointerEvents=1;shape=mxgraph.cisco19.rect;prIcon=l2_switch;fillColor=#FAFAFA;strokeColor=#005073;" vertex="1" parent="1">
          <mxGeometry x="3544" y="665.3800000000001" width="60" height="60" as="geometry" />
        </mxCell>
        <mxCell id="1tEm5xEd0jEl-nkEfbYp-26" value="" style="image;sketch=0;aspect=fixed;html=1;points=[];align=center;fontSize=12;image=img/lib/mscae/VM_Linux.svg;" vertex="1" parent="1">
          <mxGeometry x="3544" y="800" width="73.91" height="68" as="geometry" />
        </mxCell>
        <mxCell id="1tEm5xEd0jEl-nkEfbYp-27" value="" style="image;sketch=0;aspect=fixed;html=1;points=[];align=center;fontSize=12;image=img/lib/mscae/VirtualMachineWindows.svg;" vertex="1" parent="1">
          <mxGeometry x="3330" y="810" width="73.91" height="68" as="geometry" />
        </mxCell>
        <mxCell id="1tEm5xEd0jEl-nkEfbYp-31" value="Datacenter DMZ" style="text;strokeColor=none;align=center;fillColor=none;html=1;verticalAlign=middle;whiteSpace=wrap;rounded=0;" vertex="1" parent="1">
          <mxGeometry x="2750" y="392.94" width="120" height="30" as="geometry" />
        </mxCell>
        <mxCell id="1tEm5xEd0jEl-nkEfbYp-32" value="Datacenter intranet" style="text;strokeColor=none;align=center;fillColor=none;html=1;verticalAlign=middle;whiteSpace=wrap;rounded=0;" vertex="1" parent="1">
          <mxGeometry x="2750" y="567.6200000000001" width="120" height="30" as="geometry" />
        </mxCell>
        <mxCell id="1tEm5xEd0jEl-nkEfbYp-33" value="Spine" style="text;strokeColor=none;align=center;fillColor=none;html=1;verticalAlign=middle;whiteSpace=wrap;rounded=0;" vertex="1" parent="1">
          <mxGeometry x="2972" y="587.94" width="120" height="30" as="geometry" />
        </mxCell>
        <mxCell id="1tEm5xEd0jEl-nkEfbYp-34" value="Leaf" style="text;strokeColor=none;align=center;fillColor=none;html=1;verticalAlign=middle;whiteSpace=wrap;rounded=0;" vertex="1" parent="1">
          <mxGeometry x="2850" y="682.94" width="120" height="30" as="geometry" />
        </mxCell>
        <mxCell id="1tEm5xEd0jEl-nkEfbYp-35" value="Leaf" style="text;strokeColor=none;align=center;fillColor=none;html=1;verticalAlign=middle;whiteSpace=wrap;rounded=0;" vertex="1" parent="1">
          <mxGeometry x="2850" y="512.94" width="120" height="30" as="geometry" />
        </mxCell>
        <mxCell id="1tEm5xEd0jEl-nkEfbYp-36" value="" style="sketch=0;points=[[0.015,0.015,0],[0.985,0.015,0],[0.985,0.985,0],[0.015,0.985,0],[0.25,0,0],[0.5,0,0],[0.75,0,0],[1,0.25,0],[1,0.5,0],[1,0.75,0],[0.75,1,0],[0.5,1,0],[0.25,1,0],[0,0.75,0],[0,0.5,0],[0,0.25,0]];verticalLabelPosition=bottom;html=1;verticalAlign=top;aspect=fixed;align=center;pointerEvents=1;shape=mxgraph.cisco19.rect;prIcon=l2_switch;fillColor=#FAFAFA;strokeColor=#005073;" vertex="1" parent="1">
          <mxGeometry x="3724.95" y="665.38" width="60" height="60" as="geometry" />
        </mxCell>
        <mxCell id="1tEm5xEd0jEl-nkEfbYp-37" value="" style="image;html=1;image=img/lib/clip_art/networking/Firewall_02_128x128.png" vertex="1" parent="1">
          <mxGeometry x="3604" y="290" width="80" height="80" as="geometry" />
        </mxCell>
      </root>
    </mxGraphModel>
  </diagram>
  <diagram id="KyBi60yTIyqBOMDfQFZI" name="Cas simple">
    <mxGraphModel dx="1375" dy="1948" grid="1" gridSize="10" guides="1" tooltips="1" connect="1" arrows="1" fold="1" page="1" pageScale="1" pageWidth="827" pageHeight="1169" math="0" shadow="0">
      <root>
        <mxCell id="0" />
        <mxCell id="1" parent="0" />
        <mxCell id="jf9bjM_j5oZ7g4EwfMdx-15" value="" style="whiteSpace=wrap;html=1;fillColor=#60a917;strokeColor=#2D7600;opacity=50;fontColor=#ffffff;" vertex="1" parent="1">
          <mxGeometry x="150" y="100" width="220" height="300" as="geometry" />
        </mxCell>
        <mxCell id="CQ8aIh4eVjQa9x3znZB7-1" value="" style="whiteSpace=wrap;html=1;fillColor=#f8cecc;strokeColor=#b85450;opacity=50;" vertex="1" parent="1">
          <mxGeometry x="520" y="-20" width="220" height="170" as="geometry" />
        </mxCell>
        <mxCell id="qgnNNqIa0O5qme5UtDdc-1" value="" style="image;html=1;image=img/lib/clip_art/networking/Firewall_02_128x128.png" vertex="1" parent="1">
          <mxGeometry x="520" y="309.99999999999994" width="80" height="80" as="geometry" />
        </mxCell>
        <mxCell id="qgnNNqIa0O5qme5UtDdc-2" value="" style="shape=mxgraph.cisco.routers.router;sketch=0;html=1;pointerEvents=1;dashed=0;fillColor=#036897;strokeColor=#ffffff;strokeWidth=2;verticalLabelPosition=bottom;verticalAlign=top;align=center;outlineConnect=0;" vertex="1" parent="1">
          <mxGeometry x="595" y="60" width="78" height="53" as="geometry" />
        </mxCell>
        <mxCell id="4nvfCktIJrDuLJudb_AO-3" style="rounded=0;orthogonalLoop=1;jettySize=auto;html=1;exitX=0.5;exitY=0;exitDx=0;exitDy=0;exitPerimeter=0;entryX=0.5;entryY=1;entryDx=0;entryDy=0;endArrow=none;endFill=0;" edge="1" parent="1" source="qgnNNqIa0O5qme5UtDdc-3" target="qgnNNqIa0O5qme5UtDdc-1">
          <mxGeometry relative="1" as="geometry" />
        </mxCell>
        <mxCell id="4nvfCktIJrDuLJudb_AO-17" style="rounded=0;orthogonalLoop=1;jettySize=auto;html=1;exitX=1;exitY=0;exitDx=0;exitDy=0;exitPerimeter=0;entryX=0;entryY=1;entryDx=0;entryDy=0;endArrow=none;endFill=0;" edge="1" parent="1" source="qgnNNqIa0O5qme5UtDdc-3" target="qgnNNqIa0O5qme5UtDdc-8">
          <mxGeometry relative="1" as="geometry" />
        </mxCell>
        <mxCell id="qgnNNqIa0O5qme5UtDdc-3" value="" style="shape=mxgraph.cisco.switches.layer_3_switch;sketch=0;html=1;pointerEvents=1;dashed=0;fillColor=#036897;strokeColor=#ffffff;strokeWidth=2;verticalLabelPosition=bottom;verticalAlign=top;align=center;outlineConnect=0;" vertex="1" parent="1">
          <mxGeometry x="330" y="500" width="64" height="64" as="geometry" />
        </mxCell>
        <mxCell id="4nvfCktIJrDuLJudb_AO-4" style="rounded=0;orthogonalLoop=1;jettySize=auto;html=1;exitX=1;exitY=0;exitDx=0;exitDy=0;exitPerimeter=0;entryX=0.5;entryY=1;entryDx=0;entryDy=0;endArrow=none;endFill=0;" edge="1" parent="1" source="qgnNNqIa0O5qme5UtDdc-4" target="qgnNNqIa0O5qme5UtDdc-8">
          <mxGeometry relative="1" as="geometry" />
        </mxCell>
        <mxCell id="4nvfCktIJrDuLJudb_AO-18" style="rounded=0;orthogonalLoop=1;jettySize=auto;html=1;exitX=0.5;exitY=0;exitDx=0;exitDy=0;exitPerimeter=0;endArrow=none;endFill=0;elbow=vertical;entryX=1;entryY=1;entryDx=0;entryDy=0;" edge="1" parent="1" source="qgnNNqIa0O5qme5UtDdc-4" target="qgnNNqIa0O5qme5UtDdc-1">
          <mxGeometry relative="1" as="geometry">
            <mxPoint x="410" y="420" as="targetPoint" />
          </mxGeometry>
        </mxCell>
        <mxCell id="qgnNNqIa0O5qme5UtDdc-4" value="" style="shape=mxgraph.cisco.switches.layer_3_switch;sketch=0;html=1;pointerEvents=1;dashed=0;fillColor=#036897;strokeColor=#ffffff;strokeWidth=2;verticalLabelPosition=bottom;verticalAlign=top;align=center;outlineConnect=0;" vertex="1" parent="1">
          <mxGeometry x="482" y="500" width="64" height="64" as="geometry" />
        </mxCell>
        <mxCell id="qgnNNqIa0O5qme5UtDdc-5" value="" style="sketch=0;points=[[0.015,0.015,0],[0.985,0.015,0],[0.985,0.985,0],[0.015,0.985,0],[0.25,0,0],[0.5,0,0],[0.75,0,0],[1,0.25,0],[1,0.5,0],[1,0.75,0],[0.75,1,0],[0.5,1,0],[0.25,1,0],[0,0.75,0],[0,0.5,0],[0,0.25,0]];verticalLabelPosition=bottom;html=1;verticalAlign=top;aspect=fixed;align=center;pointerEvents=1;shape=mxgraph.cisco19.rect;prIcon=l2_switch;fillColor=#FAFAFA;strokeColor=#005073;" vertex="1" parent="1">
          <mxGeometry x="332" y="790" width="60" height="60" as="geometry" />
        </mxCell>
        <mxCell id="qgnNNqIa0O5qme5UtDdc-6" value="" style="sketch=0;points=[[0.015,0.015,0],[0.985,0.015,0],[0.985,0.985,0],[0.015,0.985,0],[0.25,0,0],[0.5,0,0],[0.75,0,0],[1,0.25,0],[1,0.5,0],[1,0.75,0],[0.75,1,0],[0.5,1,0],[0.25,1,0],[0,0.75,0],[0,0.5,0],[0,0.25,0]];verticalLabelPosition=bottom;html=1;verticalAlign=top;aspect=fixed;align=center;pointerEvents=1;shape=mxgraph.cisco19.rect;prIcon=l2_switch;fillColor=#FAFAFA;strokeColor=#005073;" vertex="1" parent="1">
          <mxGeometry x="485" y="790" width="60" height="60" as="geometry" />
        </mxCell>
        <mxCell id="4nvfCktIJrDuLJudb_AO-9" style="edgeStyle=orthogonalEdgeStyle;rounded=0;orthogonalLoop=1;jettySize=auto;html=1;exitX=0;exitY=0.5;exitDx=0;exitDy=0;entryX=1;entryY=0.5;entryDx=0;entryDy=0;endArrow=none;endFill=0;" edge="1" parent="1" source="qgnNNqIa0O5qme5UtDdc-8" target="qgnNNqIa0O5qme5UtDdc-1">
          <mxGeometry relative="1" as="geometry" />
        </mxCell>
        <mxCell id="qgnNNqIa0O5qme5UtDdc-8" value="" style="image;html=1;image=img/lib/clip_art/networking/Firewall_02_128x128.png" vertex="1" parent="1">
          <mxGeometry x="672" y="310" width="80" height="80" as="geometry" />
        </mxCell>
        <mxCell id="oz5YXgNAbN0C024uUrtp-1" value="PE (FAI)" style="text;strokeColor=none;align=center;fillColor=none;html=1;verticalAlign=middle;whiteSpace=wrap;rounded=0;fontStyle=1" vertex="1" parent="1">
          <mxGeometry x="604" y="113" width="60" height="30" as="geometry" />
        </mxCell>
        <mxCell id="4nvfCktIJrDuLJudb_AO-2" value="PE (FAI)" style="text;strokeColor=none;align=center;fillColor=none;html=1;verticalAlign=middle;whiteSpace=wrap;rounded=0;fontStyle=1" vertex="1" parent="1">
          <mxGeometry x="960" y="230" width="60" height="30" as="geometry" />
        </mxCell>
        <mxCell id="4nvfCktIJrDuLJudb_AO-10" style="edgeStyle=orthogonalEdgeStyle;rounded=0;orthogonalLoop=1;jettySize=auto;html=1;exitX=1;exitY=0.5;exitDx=0;exitDy=0;exitPerimeter=0;entryX=0;entryY=0.5;entryDx=0;entryDy=0;entryPerimeter=0;endArrow=none;endFill=0;shape=link;" edge="1" parent="1">
          <mxGeometry relative="1" as="geometry">
            <mxPoint x="394" y="535" as="sourcePoint" />
            <mxPoint x="482" y="535" as="targetPoint" />
          </mxGeometry>
        </mxCell>
        <mxCell id="4nvfCktIJrDuLJudb_AO-11" value="" style="shape=mxgraph.cisco.switches.layer_3_switch;sketch=0;html=1;pointerEvents=1;dashed=0;fillColor=#036897;strokeColor=#ffffff;strokeWidth=2;verticalLabelPosition=bottom;verticalAlign=top;align=center;outlineConnect=0;" vertex="1" parent="1">
          <mxGeometry x="330" y="640" width="64" height="64" as="geometry" />
        </mxCell>
        <mxCell id="4nvfCktIJrDuLJudb_AO-12" value="" style="shape=mxgraph.cisco.switches.layer_3_switch;sketch=0;html=1;pointerEvents=1;dashed=0;fillColor=#036897;strokeColor=#ffffff;strokeWidth=2;verticalLabelPosition=bottom;verticalAlign=top;align=center;outlineConnect=0;" vertex="1" parent="1">
          <mxGeometry x="482" y="640" width="64" height="64" as="geometry" />
        </mxCell>
        <mxCell id="4nvfCktIJrDuLJudb_AO-13" style="edgeStyle=orthogonalEdgeStyle;rounded=0;orthogonalLoop=1;jettySize=auto;html=1;exitX=1;exitY=0.5;exitDx=0;exitDy=0;exitPerimeter=0;entryX=0;entryY=0.5;entryDx=0;entryDy=0;entryPerimeter=0;endArrow=none;endFill=0;shape=link;" edge="1" parent="1" source="4nvfCktIJrDuLJudb_AO-11" target="4nvfCktIJrDuLJudb_AO-12">
          <mxGeometry relative="1" as="geometry" />
        </mxCell>
        <mxCell id="4nvfCktIJrDuLJudb_AO-16" value="" style="sketch=0;points=[[0.015,0.015,0],[0.985,0.015,0],[0.985,0.985,0],[0.015,0.985,0],[0.25,0,0],[0.5,0,0],[0.75,0,0],[1,0.25,0],[1,0.5,0],[1,0.75,0],[0.75,1,0],[0.5,1,0],[0.25,1,0],[0,0.75,0],[0,0.5,0],[0,0.25,0]];verticalLabelPosition=bottom;html=1;verticalAlign=top;aspect=fixed;align=center;pointerEvents=1;shape=mxgraph.cisco19.rect;prIcon=l2_switch;fillColor=#FAFAFA;strokeColor=#005073;" vertex="1" parent="1">
          <mxGeometry x="604" y="200" width="60" height="60" as="geometry" />
        </mxCell>
        <mxCell id="4nvfCktIJrDuLJudb_AO-19" value="Lien HA" style="text;strokeColor=none;align=center;fillColor=none;html=1;verticalAlign=middle;whiteSpace=wrap;rounded=0;fontStyle=1" vertex="1" parent="1">
          <mxGeometry x="604" y="320" width="60" height="30" as="geometry" />
        </mxCell>
        <mxCell id="4nvfCktIJrDuLJudb_AO-22" style="edgeStyle=orthogonalEdgeStyle;rounded=0;orthogonalLoop=1;jettySize=auto;html=1;exitX=1;exitY=0.5;exitDx=0;exitDy=0;exitPerimeter=0;entryX=0;entryY=0.5;entryDx=0;entryDy=0;entryPerimeter=0;endArrow=none;endFill=0;shape=link;" edge="1" parent="1">
          <mxGeometry relative="1" as="geometry">
            <mxPoint x="394" y="524" as="sourcePoint" />
            <mxPoint x="482" y="524" as="targetPoint" />
          </mxGeometry>
        </mxCell>
        <mxCell id="4nvfCktIJrDuLJudb_AO-23" style="edgeStyle=orthogonalEdgeStyle;rounded=0;orthogonalLoop=1;jettySize=auto;html=1;exitX=0.5;exitY=0;exitDx=0;exitDy=0;exitPerimeter=0;entryX=0.5;entryY=1;entryDx=0;entryDy=0;entryPerimeter=0;endArrow=none;endFill=0;shape=link;" edge="1" parent="1" source="4nvfCktIJrDuLJudb_AO-11" target="qgnNNqIa0O5qme5UtDdc-3">
          <mxGeometry relative="1" as="geometry" />
        </mxCell>
        <mxCell id="4nvfCktIJrDuLJudb_AO-24" style="rounded=0;orthogonalLoop=1;jettySize=auto;html=1;exitX=1;exitY=0;exitDx=0;exitDy=0;exitPerimeter=0;entryX=0;entryY=1;entryDx=0;entryDy=0;entryPerimeter=0;shape=link;" edge="1" parent="1" source="4nvfCktIJrDuLJudb_AO-11" target="qgnNNqIa0O5qme5UtDdc-4">
          <mxGeometry relative="1" as="geometry" />
        </mxCell>
        <mxCell id="4nvfCktIJrDuLJudb_AO-25" style="rounded=0;orthogonalLoop=1;jettySize=auto;html=1;exitX=0.08;exitY=0.05;exitDx=0;exitDy=0;exitPerimeter=0;entryX=0.95;entryY=0.94;entryDx=0;entryDy=0;entryPerimeter=0;shape=link;" edge="1" parent="1" source="4nvfCktIJrDuLJudb_AO-12" target="qgnNNqIa0O5qme5UtDdc-3">
          <mxGeometry relative="1" as="geometry" />
        </mxCell>
        <mxCell id="4nvfCktIJrDuLJudb_AO-26" style="rounded=0;orthogonalLoop=1;jettySize=auto;html=1;exitX=0.5;exitY=0;exitDx=0;exitDy=0;exitPerimeter=0;entryX=0.5;entryY=1;entryDx=0;entryDy=0;entryPerimeter=0;shape=link;" edge="1" parent="1" source="4nvfCktIJrDuLJudb_AO-12" target="qgnNNqIa0O5qme5UtDdc-4">
          <mxGeometry relative="1" as="geometry" />
        </mxCell>
        <mxCell id="4nvfCktIJrDuLJudb_AO-27" value="Bloc duo core" style="text;strokeColor=none;align=center;fillColor=none;html=1;verticalAlign=middle;whiteSpace=wrap;rounded=0;fontStyle=1" vertex="1" parent="1">
          <mxGeometry x="554" y="517" width="86" height="30" as="geometry" />
        </mxCell>
        <mxCell id="4nvfCktIJrDuLJudb_AO-28" value="Bloc duo distribution" style="text;strokeColor=none;align=center;fillColor=none;html=1;verticalAlign=middle;whiteSpace=wrap;rounded=0;fontStyle=1" vertex="1" parent="1">
          <mxGeometry x="554" y="657" width="86" height="30" as="geometry" />
        </mxCell>
        <mxCell id="4nvfCktIJrDuLJudb_AO-29" style="rounded=0;orthogonalLoop=1;jettySize=auto;html=1;exitX=0.5;exitY=0;exitDx=0;exitDy=0;exitPerimeter=0;entryX=0.5;entryY=1;entryDx=0;entryDy=0;entryPerimeter=0;shape=link;" edge="1" parent="1" source="qgnNNqIa0O5qme5UtDdc-5" target="4nvfCktIJrDuLJudb_AO-11">
          <mxGeometry relative="1" as="geometry" />
        </mxCell>
        <mxCell id="4nvfCktIJrDuLJudb_AO-30" style="rounded=0;orthogonalLoop=1;jettySize=auto;html=1;exitX=0.015;exitY=0.015;exitDx=0;exitDy=0;exitPerimeter=0;entryX=0.95;entryY=0.94;entryDx=0;entryDy=0;entryPerimeter=0;shape=link;" edge="1" parent="1" source="qgnNNqIa0O5qme5UtDdc-6" target="4nvfCktIJrDuLJudb_AO-11">
          <mxGeometry relative="1" as="geometry" />
        </mxCell>
        <mxCell id="4nvfCktIJrDuLJudb_AO-34" style="rounded=0;orthogonalLoop=1;jettySize=auto;html=1;exitX=0.985;exitY=0.015;exitDx=0;exitDy=0;exitPerimeter=0;entryX=0;entryY=1;entryDx=0;entryDy=0;entryPerimeter=0;shape=link;" edge="1" parent="1" source="qgnNNqIa0O5qme5UtDdc-5" target="4nvfCktIJrDuLJudb_AO-12">
          <mxGeometry relative="1" as="geometry" />
        </mxCell>
        <mxCell id="4nvfCktIJrDuLJudb_AO-36" style="rounded=0;orthogonalLoop=1;jettySize=auto;html=1;exitX=0.5;exitY=0;exitDx=0;exitDy=0;exitPerimeter=0;entryX=0.5;entryY=1;entryDx=0;entryDy=0;entryPerimeter=0;shape=link;" edge="1" parent="1" source="qgnNNqIa0O5qme5UtDdc-6" target="4nvfCktIJrDuLJudb_AO-12">
          <mxGeometry relative="1" as="geometry" />
        </mxCell>
        <mxCell id="4nvfCktIJrDuLJudb_AO-37" style="edgeStyle=orthogonalEdgeStyle;rounded=0;orthogonalLoop=1;jettySize=auto;html=1;exitX=1;exitY=0.5;exitDx=0;exitDy=0;exitPerimeter=0;entryX=0;entryY=0.5;entryDx=0;entryDy=0;entryPerimeter=0;endArrow=none;endFill=0;shape=link;" edge="1" parent="1">
          <mxGeometry relative="1" as="geometry">
            <mxPoint x="394" y="683" as="sourcePoint" />
            <mxPoint x="482" y="683" as="targetPoint" />
          </mxGeometry>
        </mxCell>
        <mxCell id="4nvfCktIJrDuLJudb_AO-38" value="Bloc duo edge" style="text;strokeColor=none;align=center;fillColor=none;html=1;verticalAlign=middle;whiteSpace=wrap;rounded=0;fontStyle=1" vertex="1" parent="1">
          <mxGeometry x="758" y="335" width="86" height="30" as="geometry" />
        </mxCell>
        <mxCell id="4nvfCktIJrDuLJudb_AO-39" value="" style="shape=mxgraph.cisco.switches.layer_3_switch;sketch=0;html=1;pointerEvents=1;dashed=0;fillColor=#036897;strokeColor=#ffffff;strokeWidth=2;verticalLabelPosition=bottom;verticalAlign=top;align=center;outlineConnect=0;" vertex="1" parent="1">
          <mxGeometry x="180" y="326" width="64" height="64" as="geometry" />
        </mxCell>
        <mxCell id="4nvfCktIJrDuLJudb_AO-40" value="" style="shape=mxgraph.cisco.switches.layer_3_switch;sketch=0;html=1;pointerEvents=1;dashed=0;fillColor=#036897;strokeColor=#ffffff;strokeWidth=2;verticalLabelPosition=bottom;verticalAlign=top;align=center;outlineConnect=0;" vertex="1" parent="1">
          <mxGeometry x="279" y="326" width="64" height="64" as="geometry" />
        </mxCell>
        <mxCell id="4nvfCktIJrDuLJudb_AO-41" value="" style="sketch=0;points=[[0.015,0.015,0],[0.985,0.015,0],[0.985,0.985,0],[0.015,0.985,0],[0.25,0,0],[0.5,0,0],[0.75,0,0],[1,0.25,0],[1,0.5,0],[1,0.75,0],[0.75,1,0],[0.5,1,0],[0.25,1,0],[0,0.75,0],[0,0.5,0],[0,0.25,0]];verticalLabelPosition=bottom;html=1;verticalAlign=top;aspect=fixed;align=center;pointerEvents=1;shape=mxgraph.cisco19.rect;prIcon=l2_switch;fillColor=#FAFAFA;strokeColor=#005073;" vertex="1" parent="1">
          <mxGeometry x="281" y="230" width="60" height="60" as="geometry" />
        </mxCell>
        <mxCell id="4nvfCktIJrDuLJudb_AO-42" value="" style="sketch=0;points=[[0.015,0.015,0],[0.985,0.015,0],[0.985,0.985,0],[0.015,0.985,0],[0.25,0,0],[0.5,0,0],[0.75,0,0],[1,0.25,0],[1,0.5,0],[1,0.75,0],[0.75,1,0],[0.5,1,0],[0.25,1,0],[0,0.75,0],[0,0.5,0],[0,0.25,0]];verticalLabelPosition=bottom;html=1;verticalAlign=top;aspect=fixed;align=center;pointerEvents=1;shape=mxgraph.cisco19.rect;prIcon=l2_switch;fillColor=#FAFAFA;strokeColor=#005073;" vertex="1" parent="1">
          <mxGeometry x="182" y="230" width="60" height="60" as="geometry" />
        </mxCell>
        <mxCell id="jf9bjM_j5oZ7g4EwfMdx-6" style="edgeStyle=orthogonalEdgeStyle;rounded=0;orthogonalLoop=1;jettySize=auto;html=1;exitX=0.5;exitY=0;exitDx=0;exitDy=0;exitPerimeter=0;entryX=0.5;entryY=1;entryDx=0;entryDy=0;entryPerimeter=0;shape=link;" edge="1" parent="1" source="4nvfCktIJrDuLJudb_AO-39" target="4nvfCktIJrDuLJudb_AO-42">
          <mxGeometry relative="1" as="geometry" />
        </mxCell>
        <mxCell id="jf9bjM_j5oZ7g4EwfMdx-7" style="edgeStyle=orthogonalEdgeStyle;rounded=0;orthogonalLoop=1;jettySize=auto;html=1;exitX=0.5;exitY=0;exitDx=0;exitDy=0;exitPerimeter=0;entryX=0.5;entryY=1;entryDx=0;entryDy=0;entryPerimeter=0;shape=link;" edge="1" parent="1" source="4nvfCktIJrDuLJudb_AO-40" target="4nvfCktIJrDuLJudb_AO-41">
          <mxGeometry relative="1" as="geometry" />
        </mxCell>
        <mxCell id="jf9bjM_j5oZ7g4EwfMdx-8" style="rounded=0;orthogonalLoop=1;jettySize=auto;html=1;exitX=0.5;exitY=0;exitDx=0;exitDy=0;exitPerimeter=0;entryX=0.5;entryY=1;entryDx=0;entryDy=0;entryPerimeter=0;shape=link;" edge="1" parent="1" source="qgnNNqIa0O5qme5UtDdc-3" target="4nvfCktIJrDuLJudb_AO-40">
          <mxGeometry relative="1" as="geometry" />
        </mxCell>
        <mxCell id="jf9bjM_j5oZ7g4EwfMdx-9" style="rounded=0;orthogonalLoop=1;jettySize=auto;html=1;exitX=0.08;exitY=0.05;exitDx=0;exitDy=0;exitPerimeter=0;entryX=0.5;entryY=1;entryDx=0;entryDy=0;entryPerimeter=0;shape=link;" edge="1" parent="1" source="qgnNNqIa0O5qme5UtDdc-3" target="4nvfCktIJrDuLJudb_AO-39">
          <mxGeometry relative="1" as="geometry" />
        </mxCell>
        <mxCell id="jf9bjM_j5oZ7g4EwfMdx-10" style="rounded=0;orthogonalLoop=1;jettySize=auto;html=1;exitX=0.08;exitY=0.05;exitDx=0;exitDy=0;exitPerimeter=0;entryX=0.95;entryY=0.94;entryDx=0;entryDy=0;entryPerimeter=0;shape=link;" edge="1" parent="1" source="qgnNNqIa0O5qme5UtDdc-4" target="4nvfCktIJrDuLJudb_AO-39">
          <mxGeometry relative="1" as="geometry" />
        </mxCell>
        <mxCell id="jf9bjM_j5oZ7g4EwfMdx-11" style="rounded=0;orthogonalLoop=1;jettySize=auto;html=1;exitX=0.5;exitY=0;exitDx=0;exitDy=0;exitPerimeter=0;entryX=0.95;entryY=0.94;entryDx=0;entryDy=0;entryPerimeter=0;shape=link;" edge="1" parent="1" source="qgnNNqIa0O5qme5UtDdc-4" target="4nvfCktIJrDuLJudb_AO-40">
          <mxGeometry relative="1" as="geometry" />
        </mxCell>
        <mxCell id="jf9bjM_j5oZ7g4EwfMdx-13" style="rounded=0;orthogonalLoop=1;jettySize=auto;html=1;entryX=0.015;entryY=0.985;entryDx=0;entryDy=0;entryPerimeter=0;shape=link;" edge="1" parent="1" source="4nvfCktIJrDuLJudb_AO-39" target="4nvfCktIJrDuLJudb_AO-41">
          <mxGeometry relative="1" as="geometry" />
        </mxCell>
        <mxCell id="jf9bjM_j5oZ7g4EwfMdx-14" style="rounded=0;orthogonalLoop=1;jettySize=auto;html=1;exitX=0.08;exitY=0.05;exitDx=0;exitDy=0;exitPerimeter=0;entryX=0.985;entryY=0.985;entryDx=0;entryDy=0;entryPerimeter=0;shape=link;" edge="1" parent="1" source="4nvfCktIJrDuLJudb_AO-40" target="4nvfCktIJrDuLJudb_AO-42">
          <mxGeometry relative="1" as="geometry" />
        </mxCell>
        <mxCell id="jf9bjM_j5oZ7g4EwfMdx-16" value="Datacenter INTRANET" style="text;strokeColor=none;align=center;fillColor=none;html=1;verticalAlign=middle;whiteSpace=wrap;rounded=0;fontStyle=1" vertex="1" parent="1">
          <mxGeometry x="190" y="113" width="140" height="30" as="geometry" />
        </mxCell>
      </root>
    </mxGraphModel>
  </diagram>
</mxfile>
